<svg id="Group_456" data-name="Group 456" xmlns="http://www.w3.org/2000/svg" width="41.197" height="23.005" viewBox="0 0 41.197 23.005">
  <path id="Path_426" data-name="Path 426" d="M175.687,59.2a1.636,1.636,0,0,1-1.7,1.557h-37.8a1.563,1.563,0,1,1,0-3.114h37.8A1.636,1.636,0,0,1,175.687,59.2Zm-18.62-19.56a1.98,1.98,0,0,0-3.956-.011,15.476,15.476,0,0,1,3.956.011Zm15.4,16.628H137.707a17.435,17.435,0,0,1,34.762,0ZM153.1,41.731a18.056,18.056,0,0,0-12.654,12.913h3.684S146.169,45.647,153.1,41.731Z" transform="translate(-134.49 -37.754)" fill="#fff"/>
</svg>
